<svg xmlns="http://www.w3.org/2000/svg" xmlns:xlink="http://www.w3.org/1999/xlink" preserveAspectRatio="xMidYMid" width="64" height="40" viewBox="0 0 64 40">
  <defs>
    <style>
      .cls-1 {
        fill: #fff;
        fill-rule: evenodd;
      }
    </style>
  </defs>
  <path d="M32.000,40.002 C18.152,40.002 6.122,31.904 0.000,20.001 C6.122,8.099 18.152,0.001 32.000,0.001 C45.848,0.001 57.878,8.099 64.000,20.001 C57.878,31.904 45.848,40.002 32.000,40.002 ZM32.000,4.001 C23.164,4.001 16.000,11.165 16.000,20.001 C16.000,28.839 23.164,36.001 32.000,36.001 C40.837,36.001 48.000,28.839 48.000,20.001 C48.000,11.165 40.837,4.001 32.000,4.001 ZM32.000,28.000 C27.582,28.000 24.000,24.418 24.000,20.000 C24.000,15.582 27.582,12.000 32.000,12.000 C36.418,12.000 40.000,15.582 40.000,20.000 C40.000,24.418 36.418,28.000 32.000,28.000 Z" class="cls-1"/>
</svg>
